<?xml version="1.0" standalone="no"?>
<!DOCTYPE svg PUBLIC "-//W3C//DTD SVG 20010904//EN"
 "http://www.w3.org/TR/2001/REC-SVG-20010904/DTD/svg10.dtd">
<svg version="1.0" xmlns="http://www.w3.org/2000/svg"
 width="432.000000pt" height="324.000000pt" viewBox="0 0 432.000000 324.000000"
 preserveAspectRatio="xMidYMid meet">

<g transform="translate(0.000000,324.000000) scale(0.100000,-0.100000)"
fill="#000000" stroke="none">
<path d="M1698 2773 c-8 -10 -23 -49 -32 -88 -12 -50 -29 -85 -57 -122 -35
-44 -47 -53 -90 -62 -67 -15 -86 -14 -93 4 -4 12 -12 11 -42 -10 -20 -14 -49
-25 -64 -25 -34 0 -100 -27 -100 -40 0 -6 10 -8 23 -6 67 14 96 16 102 6 7
-12 -53 -40 -85 -40 -11 0 -20 -5 -20 -12 0 -6 -10 -22 -22 -36 l-23 -24 28 6
c15 3 38 8 52 11 20 4 25 1 25 -13 0 -21 -29 -52 -49 -52 -13 0 -120 -57 -136
-72 -14 -14 86 0 103 15 27 22 34 -8 13 -54 -11 -24 -22 -51 -25 -59 -3 -8
-23 -46 -45 -85 -22 -38 -57 -106 -78 -150 -21 -44 -55 -111 -76 -150 -36 -66
-105 -207 -252 -510 -34 -71 -84 -174 -110 -228 -37 -75 -46 -100 -37 -109 18
-18 61 38 126 163 43 82 55 113 50 135 -3 19 2 43 17 69 26 48 61 120 181 365
107 219 126 257 165 330 17 30 34 66 39 80 14 39 113 216 127 228 20 16 116
42 122 32 3 -5 -16 -51 -43 -102 -27 -51 -89 -169 -137 -263 -48 -93 -95 -183
-105 -200 -9 -16 -43 -79 -75 -140 -130 -247 -151 -286 -227 -418 -43 -76 -94
-158 -113 -183 -19 -25 -35 -50 -35 -55 0 -19 40 -8 56 16 9 14 23 25 32 25 9
0 60 33 112 74 53 40 112 82 131 91 19 10 54 34 79 55 25 20 62 49 83 65 56
41 35 5 -26 -47 -29 -23 -90 -79 -138 -123 -47 -44 -105 -97 -130 -118 -43
-37 -43 -38 -14 -32 40 8 104 40 137 67 81 69 257 198 269 198 7 0 112 74 154
108 32 25 35 19 4 -10 -44 -41 -255 -229 -289 -257 -19 -15 -21 -20 -9 -21 18
0 47 22 201 153 56 49 121 100 143 115 22 15 83 59 135 98 52 39 138 101 190
137 137 96 129 90 325 231 99 71 199 143 223 160 36 26 40 32 25 37 -18 8
-315 3 -412 -7 -58 -5 -85 -22 -366 -230 -60 -45 -148 -107 -195 -138 -47 -30
-104 -70 -127 -88 -23 -18 -88 -68 -143 -111 -55 -43 -100 -72 -100 -65 0 42
458 824 581 992 9 11 167 48 544 125 55 12 118 25 140 30 93 21 410 81 429 81
30 0 16 -17 -51 -64 -38 -25 -115 -80 -173 -121 -58 -41 -142 -101 -188 -132
-46 -31 -85 -60 -88 -65 -5 -8 112 -12 324 -11 118 1 125 3 160 29 20 15 39
31 42 34 3 3 34 28 70 55 151 113 410 337 410 355 0 10 11 25 25 34 53 35 21
80 -59 82 -28 1 -88 5 -134 9 -54 5 -96 4 -120 -3 -60 -18 -240 -44 -332 -48
-155 -7 -233 -15 -289 -30 -62 -16 -180 -42 -256 -55 -27 -4 -90 -15 -140 -24
-49 -9 -121 -20 -160 -26 -38 -5 -85 -12 -102 -15 -20 -4 -33 -2 -33 4 0 6 17
48 38 94 55 117 65 145 57 157 -9 16 -30 13 -47 -6z m-43 -390 c-11 -2 -29 -8
-40 -13 -11 -5 -51 -16 -90 -25 -38 -9 -90 -25 -114 -36 -50 -22 -71 -24 -71
-7 0 23 34 48 65 48 18 0 57 5 86 11 98 21 134 26 159 27 19 0 20 -1 5 -5z
m-126 -135 c-35 -69 -154 -249 -157 -240 -4 14 104 218 130 244 26 26 41 23
27 -4z"/>
<path d="M2370 778 c-11 -18 -20 -36 -20 -40 0 -4 -13 -36 -29 -70 -15 -35
-48 -114 -72 -176 -47 -123 -40 -116 -141 -127 -55 -6 -78 -18 -63 -33 3 -4
35 -5 71 -4 52 3 64 0 64 -12 0 -22 -40 -128 -55 -146 -17 -21 -28 -58 -20
-71 15 -23 55 36 85 125 17 50 34 97 38 103 9 14 95 33 148 33 23 0 34 5 34
14 0 24 -14 27 -82 17 -34 -5 -66 -6 -70 -2 -7 6 40 129 122 322 16 39 30 77
30 85 0 24 -20 15 -40 -18z"/>
<path d="M2969 643 c-8 -9 -31 -43 -51 -77 -39 -62 -48 -96 -25 -96 26 0 123
149 113 175 -7 20 -20 19 -37 -2z"/>
<path d="M2754 639 c-13 -22 -8 -178 7 -195 21 -25 28 2 25 99 -3 86 -15 123
-32 96z"/>
<path d="M2505 601 c-6 -11 45 -84 108 -156 30 -34 36 -37 42 -23 4 11 -1 28
-14 45 -105 138 -122 155 -136 134z"/>
<path d="M850 531 c-89 -37 -146 -78 -221 -159 -74 -80 -107 -141 -116 -210
-21 -179 187 -176 389 6 34 31 42 52 18 52 -4 0 -32 -20 -62 -45 -58 -51 -152
-101 -204 -111 -79 -15 -125 38 -104 117 39 142 207 294 372 335 80 20 131 13
163 -22 28 -30 44 -15 25 21 -28 53 -154 61 -260 16z"/>
<path d="M2487 276 c-83 -113 -104 -153 -88 -169 16 -16 63 20 56 42 -4 12 18
47 70 111 42 51 74 98 72 104 -10 30 -39 7 -110 -88z"/>
<path d="M3046 373 c-3 -3 -6 -14 -6 -24 0 -10 -16 -55 -35 -100 -19 -46 -35
-89 -35 -96 0 -27 31 -11 50 26 23 46 86 101 116 101 19 0 22 -7 27 -69 7 -82
19 -109 52 -117 35 -9 70 2 102 32 29 27 29 27 -40 2 -20 -7 -36 -7 -53 1 -20
9 -24 18 -24 53 -1 58 -16 119 -32 129 -16 10 -55 1 -86 -19 l-24 -15 7 45 c6
42 -3 67 -19 51z"/>
<path d="M2791 355 c-51 -8 -72 -18 -107 -48 -55 -48 -77 -89 -69 -127 13 -61
83 -85 160 -56 83 32 163 154 137 210 -13 29 -40 34 -121 21z m37 -51 c-3 -19
-34 -41 -43 -32 -4 4 -4 16 0 27 8 25 48 29 43 5z m55 10 c8 -8 -19 -73 -41
-97 -49 -56 -127 -81 -173 -57 -27 15 -24 29 13 67 38 39 50 41 63 11 12 -28
40 -34 72 -17 30 16 55 62 47 83 -6 16 7 22 19 10z"/>
<path d="M1414 316 c-17 -8 -45 -31 -62 -52 -40 -48 -43 -94 -7 -129 31 -32
110 -35 146 -6 32 26 18 37 -30 23 -21 -7 -46 -12 -55 -12 -23 0 -57 37 -50
54 6 16 78 34 154 38 36 2 47 8 56 27 7 13 10 29 8 36 -13 33 -104 45 -160 21z
m116 -36 c0 -5 -13 -10 -29 -10 -16 0 -44 -3 -62 -6 -32 -5 -33 -5 -15 10 22
18 106 22 106 6z"/>
<path d="M3457 316 c-39 -14 -67 -33 -67 -45 0 -27 31 -44 91 -50 87 -8 91
-29 14 -66 -45 -21 -59 -24 -71 -14 -11 9 -18 9 -26 1 -18 -18 9 -42 46 -42
40 0 133 45 147 72 26 48 -16 88 -91 88 -43 0 -54 16 -17 25 12 3 60 6 107 7
81 3 84 4 55 17 -43 20 -143 24 -188 7z"/>
<path d="M1685 306 c-86 -38 -109 -104 -56 -157 35 -34 86 -39 151 -13 23 9
42 15 43 13 2 -2 7 -17 13 -34 9 -26 14 -30 46 -29 39 1 70 21 114 73 47 56
16 47 -83 -25 -57 -41 -61 19 -9 109 26 43 28 67 6 67 -5 0 -30 -28 -56 -61
-49 -65 -90 -89 -147 -89 -87 0 -89 67 -3 109 43 22 52 23 83 12 42 -15 53 -8
28 19 -21 24 -84 26 -130 6z"/>
<path d="M1002 233 c-29 -42 -52 -84 -52 -95 0 -31 27 -20 57 24 31 47 94 88
133 88 14 0 45 -7 69 -16 39 -13 46 -13 67 1 35 23 30 37 -10 30 -23 -5 -44
-1 -66 10 -24 12 -46 16 -77 11 -34 -4 -43 -3 -43 9 0 34 -30 10 -78 -62z"/>
<path d="M3871 257 c-38 -13 -53 -37 -24 -37 10 0 85 -2 166 -5 148 -4 148 -4
145 18 -2 17 -12 23 -43 29 -63 11 -207 8 -244 -5z"/>
<path d="M65 211 c-36 -8 -39 -32 -5 -41 26 -7 274 6 300 16 56 21 -209 43
-295 25z"/>
</g>
</svg>
