<?xml version="1.0" standalone="no"?>
<!DOCTYPE svg PUBLIC "-//W3C//DTD SVG 20010904//EN"
 "http://www.w3.org/TR/2001/REC-SVG-20010904/DTD/svg10.dtd">
<svg version="1.0" xmlns="http://www.w3.org/2000/svg"
 width="432.000000pt" height="324.000000pt" viewBox="0 0 432.000000 324.000000"
 preserveAspectRatio="xMidYMid meet">

<g transform="translate(0.000000,324.000000) scale(0.100000,-0.100000)"
fill="#000000" stroke="none">
<path d="M1476 2668 c-43 -84 -87 -161 -98 -170 -11 -10 -33 -18 -49 -18 -40
0 -141 -39 -133 -52 4 -7 32 -9 76 -5 78 7 82 -3 9 -23 -38 -10 -51 -19 -56
-37 -4 -16 -15 -25 -35 -30 -17 -3 -33 -10 -37 -16 -6 -10 56 -5 112 9 18 4
25 2 25 -9 0 -19 -18 -34 -55 -43 -17 -4 -43 -16 -60 -26 -16 -10 -51 -28 -77
-40 -49 -22 -62 -38 -30 -38 22 1 131 25 155 35 9 4 17 3 17 -2 0 -5 -56 -119
-124 -253 -68 -135 -155 -308 -194 -385 -39 -77 -97 -196 -130 -265 -33 -69
-91 -192 -130 -274 -39 -81 -68 -154 -65 -162 7 -18 28 -18 46 1 8 8 17 11 20
8 10 -9 70 23 96 51 14 14 31 26 38 26 8 0 61 36 119 80 57 44 110 80 117 80
6 0 23 9 37 21 14 11 39 29 55 41 47 33 -132 -138 -207 -200 -70 -56 -81 -72
-50 -72 34 0 119 49 219 126 136 105 149 114 208 147 l50 28 -50 -51 c-27 -29
-78 -74 -113 -102 -35 -28 -61 -52 -59 -54 2 -2 18 -1 35 2 20 4 60 33 109 79
43 39 137 116 208 169 72 53 146 109 165 124 34 27 169 123 265 188 28 19 74
51 103 71 28 21 78 56 109 78 32 22 102 73 157 113 l99 72 -251 0 -250 0 -44
-33 c-65 -49 -266 -192 -386 -276 -59 -40 -164 -118 -233 -172 -70 -55 -132
-99 -138 -99 -15 0 10 48 151 295 130 227 277 469 362 596 57 86 57 86 114 98
31 7 71 16 87 21 17 5 73 18 125 29 52 11 185 38 295 61 295 62 534 105 541
98 2 -2 -37 -33 -87 -69 -50 -35 -128 -90 -173 -122 -44 -31 -124 -87 -177
-123 l-96 -65 -184 -6 c-127 -4 -195 -10 -219 -20 -19 -8 -65 -17 -102 -20
-110 -10 -123 -56 -14 -52 56 2 61 1 58 -18 -3 -22 12 -38 43 -45 13 -4 6 -8
-23 -13 -31 -6 -40 -11 -32 -19 10 -10 515 -15 1025 -9 94 1 242 -1 330 -5
l160 -7 -80 -42 c-240 -128 -434 -244 -573 -345 -46 -33 -160 -98 -253 -145
-94 -46 -173 -91 -175 -98 -10 -26 -186 -124 -357 -198 -21 -10 -40 -25 -44
-34 -3 -10 -18 -29 -34 -43 -22 -20 -28 -35 -31 -75 l-3 -50 60 -7 c33 -3 134
-2 225 3 239 13 479 28 525 33 46 5 810 6 870 1 105 -9 424 -13 455 -6 33 8
33 8 10 14 -126 29 -317 38 -855 38 -440 1 -656 -4 -763 -17 -59 -7 -182 3
-182 16 0 13 82 22 305 35 66 3 138 8 160 11 22 2 136 11 253 19 117 8 217 17
222 20 10 6 495 7 565 1 172 -16 252 -17 280 -6 l30 12 -35 16 c-19 8 -59 17
-89 21 -30 3 -56 12 -59 19 -3 9 38 12 180 13 135 1 173 3 144 10 -76 18 -373
41 -573 46 -160 3 -204 7 -213 18 -10 12 -45 15 -181 15 -98 0 -169 4 -169 9
0 13 49 46 80 56 14 4 37 16 52 27 15 10 69 41 120 67 51 26 120 63 153 83 33
19 121 70 195 113 164 95 200 118 200 128 0 4 -6 7 -12 7 -24 0 -332 -160
-467 -242 -94 -58 -196 -108 -218 -108 -11 0 -28 -9 -38 -20 -10 -11 -22 -20
-27 -20 -5 0 -36 -20 -69 -45 -58 -45 -115 -73 -126 -62 -3 3 21 22 53 43 33
20 82 51 109 69 28 17 79 49 115 70 36 21 81 48 100 60 19 12 58 32 85 44 28
12 68 32 90 43 176 89 211 109 222 127 7 11 41 36 75 55 35 19 77 49 93 67 17
17 63 53 103 80 39 27 72 56 72 64 0 8 26 28 58 45 131 70 148 86 118 119 -19
21 -27 21 -551 21 -515 0 -745 6 -745 20 0 3 51 45 113 92 176 135 421 348
435 379 6 16 16 29 22 29 5 0 14 9 20 21 9 16 8 26 -4 43 -13 20 -26 24 -108
31 -100 8 -227 7 -240 -1 -21 -13 -216 -36 -338 -39 -101 -3 -163 -10 -245
-30 -98 -23 -258 -55 -430 -86 -33 -6 -78 -14 -100 -19 -22 -5 -71 -12 -108
-15 -80 -7 -79 -13 -20 107 42 86 50 153 18 153 -28 0 -62 -57 -76 -126 -8
-38 -22 -73 -41 -97 -17 -20 -33 -42 -36 -48 -4 -6 -38 -15 -75 -19 l-68 -7
16 33 c27 50 116 281 112 286 -3 2 -39 -65 -81 -149z m41 -314 c-3 -3 -12 -4
-19 -1 -8 3 -5 6 6 6 11 1 17 -2 13 -5z m-86 -30 c-56 -25 -81 -30 -81 -15 0
16 24 29 60 34 71 8 74 5 21 -19z m-42 -150 c-23 -44 -71 -135 -106 -204 -109
-209 -184 -352 -213 -405 -27 -49 -70 -131 -145 -270 -105 -196 -225 -384
-225 -352 0 3 22 52 50 108 32 66 47 107 42 116 -6 10 38 108 132 297 78 156
148 299 157 317 53 115 223 440 236 450 18 16 107 39 111 29 2 -4 -16 -43 -39
-86z m120 49 c-32 -53 -79 -123 -83 -123 -2 0 15 36 37 80 23 44 47 80 55 80
10 0 8 -10 -9 -37z m2176 -273 c-12 -14 -31 -20 -59 -20 -38 0 -86 -21 -164
-71 -19 -12 -24 -12 -31 0 -5 8 -7 20 -4 28 6 15 66 43 93 43 10 0 23 7 30 14
10 14 40 19 124 24 28 2 29 2 11 -18z m-1660 -979 c16 -7 7 -11 -40 -21 -59
-12 -84 -7 -93 18 -4 14 100 16 133 3z"/>
<path d="M2370 778 c-11 -18 -20 -36 -20 -40 0 -4 -13 -36 -29 -70 -15 -35
-48 -114 -72 -176 -47 -123 -40 -116 -141 -127 -55 -6 -78 -18 -63 -33 3 -4
35 -5 71 -4 50 3 64 0 64 -11 0 -24 -39 -130 -54 -146 -19 -21 -30 -67 -18
-75 18 -11 50 40 81 129 18 50 36 96 40 103 8 13 95 32 147 32 23 0 34 5 34
14 0 24 -14 27 -82 17 -34 -5 -66 -6 -70 -2 -4 4 26 90 68 191 42 102 79 195
81 208 8 33 -14 27 -37 -10z"/>
<path d="M2969 643 c-8 -9 -31 -43 -51 -77 -39 -62 -48 -96 -25 -96 26 0 123
150 113 176 -7 19 -20 18 -37 -3z"/>
<path d="M2754 639 c-13 -21 -8 -178 7 -195 21 -25 27 1 24 98 -3 89 -14 123
-31 97z"/>
<path d="M2505 601 c-6 -11 45 -84 108 -156 30 -34 36 -37 42 -23 4 11 -1 28
-14 45 -105 138 -122 155 -136 134z"/>
<path d="M865 537 c-85 -33 -140 -70 -221 -151 -77 -77 -121 -151 -131 -221
-20 -148 133 -181 303 -65 68 47 125 101 118 111 -7 12 -39 -6 -94 -52 -49
-41 -136 -85 -188 -95 -18 -3 -45 -1 -61 6 -115 47 -3 271 194 388 130 77 249
91 301 35 21 -23 24 -24 30 -8 5 11 -2 26 -20 43 -37 38 -145 42 -231 9z"/>
<path d="M2534 333 c-21 -26 -52 -66 -70 -88 -59 -75 -86 -145 -55 -145 20 0
51 33 46 50 -4 12 18 46 70 111 41 51 74 97 72 103 -8 23 -27 14 -63 -31z"/>
<path d="M3046 373 c-3 -3 -6 -14 -6 -24 0 -10 -16 -55 -35 -100 -19 -46 -35
-89 -35 -96 0 -27 31 -11 50 26 23 46 86 101 116 101 19 0 22 -7 27 -69 3 -38
12 -79 19 -90 26 -42 87 -40 135 5 29 27 29 27 -40 2 -20 -7 -36 -7 -53 1 -20
9 -24 18 -24 53 -1 58 -16 119 -32 129 -16 10 -55 1 -86 -19 l-24 -15 7 45 c6
42 -3 67 -19 51z"/>
<path d="M2830 359 c-14 -4 -41 -7 -61 -8 -29 -1 -48 -11 -87 -46 -56 -50 -78
-98 -63 -136 32 -85 163 -73 244 22 84 98 65 196 -33 168z m-2 -55 c-3 -19
-34 -41 -43 -32 -4 4 -4 16 0 27 8 25 48 29 43 5z m57 6 c3 -6 -5 -32 -20 -58
-42 -78 -138 -123 -196 -92 -27 15 -24 29 13 67 38 39 50 41 63 11 12 -28 40
-34 72 -17 30 16 55 62 47 83 -7 17 11 22 21 6z"/>
<path d="M1414 316 c-17 -8 -45 -31 -62 -52 -40 -48 -43 -94 -7 -129 31 -32
110 -35 146 -6 32 26 18 37 -30 23 -21 -7 -46 -12 -55 -12 -23 0 -57 37 -50
54 6 16 81 35 154 39 36 2 47 7 56 26 7 13 10 29 8 36 -13 33 -104 45 -160 21z
m116 -36 c0 -5 -13 -10 -29 -10 -16 0 -44 -3 -62 -6 -32 -5 -33 -5 -15 10 22
18 106 22 106 6z"/>
<path d="M3456 316 c-93 -35 -84 -76 21 -91 90 -13 95 -33 18 -69 -43 -21 -59
-24 -74 -16 -25 13 -38 -4 -20 -27 18 -21 90 -10 145 22 89 52 62 125 -46 125
-43 0 -54 16 -17 25 12 3 60 6 107 7 81 3 84 4 55 17 -44 20 -143 24 -189 7z"/>
<path d="M1695 309 c-16 -4 -45 -22 -62 -38 -43 -39 -44 -81 -4 -122 35 -34
86 -39 151 -13 23 9 42 15 43 13 2 -2 7 -17 13 -34 9 -26 14 -30 46 -29 21 1
48 10 64 23 30 23 76 82 70 89 -4 3 -50 -25 -103 -64 -57 -41 -61 19 -9 109
26 43 28 67 6 67 -5 0 -30 -28 -56 -61 -49 -65 -90 -89 -147 -89 -86 0 -89 67
-4 109 41 20 54 22 82 14 41 -13 51 -6 28 19 -17 19 -66 23 -118 7z"/>
<path d="M1002 232 c-29 -43 -52 -86 -52 -95 0 -30 28 -18 57 25 31 47 94 88
133 88 14 0 45 -7 69 -16 39 -13 46 -13 67 1 35 23 30 37 -10 30 -23 -5 -44
-1 -66 10 -24 12 -46 16 -77 11 -34 -4 -43 -3 -43 9 0 34 -29 10 -78 -63z"/>
<path d="M3871 257 c-38 -13 -53 -37 -24 -37 10 0 85 -2 166 -5 148 -4 148 -4
145 18 -2 17 -12 23 -43 29 -63 11 -207 8 -244 -5z"/>
<path d="M70 210 c-44 -6 -47 -33 -6 -40 34 -6 273 7 296 16 54 20 -184 41
-290 24z"/>
</g>
</svg>
