<?xml version="1.0" standalone="no"?>
<!DOCTYPE svg PUBLIC "-//W3C//DTD SVG 20010904//EN"
 "http://www.w3.org/TR/2001/REC-SVG-20010904/DTD/svg10.dtd">
<svg version="1.0" xmlns="http://www.w3.org/2000/svg"
 width="432.000000pt" height="324.000000pt" viewBox="0 0 432.000000 324.000000"
 preserveAspectRatio="xMidYMid meet">

<g transform="translate(0.000000,324.000000) scale(0.100000,-0.100000)"
fill="#000000" stroke="none">
<path d="M1698 2773 c-8 -10 -23 -49 -32 -88 -12 -50 -29 -85 -57 -122 -35
-44 -47 -53 -90 -62 -67 -15 -86 -14 -93 4 -4 12 -12 11 -42 -10 -20 -14 -49
-25 -64 -25 -34 0 -100 -27 -100 -40 0 -6 10 -8 23 -6 67 14 96 16 102 6 7
-12 -53 -40 -85 -40 -11 0 -20 -5 -20 -12 0 -6 -10 -22 -22 -36 l-23 -24 28 6
c15 3 38 8 52 11 20 4 25 1 25 -13 0 -21 -29 -52 -49 -52 -13 0 -120 -57 -136
-72 -14 -14 86 0 103 15 27 22 34 -8 13 -54 -11 -24 -22 -51 -25 -59 -3 -8
-23 -46 -45 -85 -22 -38 -57 -106 -78 -150 -21 -44 -55 -111 -76 -150 -36 -66
-105 -207 -252 -510 -34 -71 -84 -174 -110 -228 -37 -75 -46 -100 -37 -109 18
-18 61 38 126 163 43 82 55 113 50 135 -3 19 2 43 17 69 26 48 61 120 181 365
107 219 126 257 165 330 17 30 34 66 39 80 14 39 113 216 127 228 20 16 116
42 122 32 3 -5 -16 -51 -43 -102 -27 -51 -89 -169 -137 -263 -48 -93 -95 -183
-105 -200 -9 -16 -43 -79 -75 -140 -130 -247 -151 -286 -227 -418 -43 -76 -94
-158 -113 -183 -19 -25 -35 -50 -35 -55 0 -19 40 -8 56 16 9 14 23 25 32 25 9
0 60 33 112 74 53 40 112 82 131 91 19 10 54 34 79 55 25 20 62 49 83 65 56
41 35 5 -26 -47 -29 -23 -90 -79 -138 -123 -47 -44 -105 -97 -130 -118 -43
-37 -43 -38 -14 -32 40 8 104 40 137 67 81 69 257 198 269 198 7 0 112 74 154
108 32 25 35 19 4 -10 -44 -41 -255 -229 -289 -257 -19 -15 -21 -20 -9 -21 18
0 47 22 201 153 56 49 121 100 143 115 22 15 83 59 135 98 52 39 138 101 190
137 137 96 129 90 325 231 99 71 199 143 223 160 36 26 40 32 25 37 -18 8
-315 3 -412 -7 -58 -5 -85 -22 -366 -230 -60 -45 -148 -107 -195 -138 -47 -30
-104 -70 -127 -88 -23 -18 -88 -68 -143 -111 -55 -43 -100 -72 -100 -65 0 42
458 824 581 992 9 11 167 48 544 125 55 12 118 25 140 30 93 21 410 81 429 81
30 0 16 -17 -51 -64 -38 -25 -115 -80 -173 -121 -58 -41 -142 -101 -188 -132
-46 -31 -85 -60 -88 -65 -5 -8 112 -12 324 -11 118 1 125 3 160 29 20 15 39
31 42 34 3 3 34 28 70 55 151 113 410 337 410 355 0 10 11 25 25 34 53 35 21
80 -59 82 -28 1 -88 5 -134 9 -54 5 -96 4 -120 -3 -60 -18 -240 -44 -332 -48
-155 -7 -233 -15 -289 -30 -62 -16 -180 -42 -256 -55 -27 -4 -90 -15 -140 -24
-49 -9 -121 -20 -160 -26 -38 -5 -85 -12 -102 -15 -20 -4 -33 -2 -33 4 0 6 17
48 38 94 55 117 65 145 57 157 -9 16 -30 13 -47 -6z m-43 -390 c-11 -2 -29 -8
-40 -13 -11 -5 -51 -16 -90 -25 -38 -9 -90 -25 -114 -36 -50 -22 -71 -24 -71
-7 0 23 34 48 65 48 18 0 57 5 86 11 98 21 134 26 159 27 19 0 20 -1 5 -5z
m-126 -135 c-35 -69 -154 -249 -157 -240 -4 14 104 218 130 244 26 26 41 23
27 -4z"/>
</g>
</svg>
