<?xml version="1.0" standalone="no"?>
<!DOCTYPE svg PUBLIC "-//W3C//DTD SVG 20010904//EN"
 "http://www.w3.org/TR/2001/REC-SVG-20010904/DTD/svg10.dtd">
<svg version="1.0" xmlns="http://www.w3.org/2000/svg"
 width="500.000000pt" height="322.000000pt" viewBox="0 0 500.000000 322.000000"
 preserveAspectRatio="xMidYMid meet">

<g transform="translate(0.000000,322.000000) scale(0.100000,-0.100000)"
fill="#000000" stroke="none">
<path d="M1696 2709 c-14 -17 -26 -42 -26 -55 0 -46 -41 -152 -73 -190 -66
-77 -71 -81 -127 -88 -90 -13 -93 -12 -106 12 -6 13 -13 19 -15 14 -9 -23 -83
-62 -119 -62 -40 0 -120 -34 -120 -51 0 -6 12 -8 28 -5 15 2 49 8 75 11 42 6
48 4 45 -10 -3 -17 -66 -45 -101 -45 -10 0 -21 -10 -26 -23 -11 -28 -31 -46
-68 -57 -36 -12 55 -3 105 10 26 7 34 5 39 -7 7 -18 -6 -43 -28 -54 -8 -4 -52
-26 -99 -49 -91 -45 -107 -56 -97 -66 7 -8 105 15 129 30 11 7 21 7 27 1 11
-11 -5 -52 -91 -219 -31 -61 -80 -158 -108 -216 -28 -58 -56 -112 -60 -120
-32 -55 -224 -434 -250 -495 -30 -69 -213 -447 -250 -517 -17 -31 -30 -66 -30
-77 0 -31 21 -37 39 -12 9 12 28 37 42 54 14 18 54 89 89 158 59 115 63 129
52 151 -12 21 -10 30 11 69 33 60 135 264 252 504 54 110 113 229 131 265 48
92 154 309 154 316 0 3 14 25 30 49 17 24 30 48 30 54 0 18 52 72 84 85 17 7
50 16 74 19 36 6 42 5 42 -11 0 -10 -4 -22 -9 -28 -10 -9 -43 -71 -168 -314
-42 -80 -95 -181 -118 -225 -23 -44 -75 -143 -115 -220 -40 -77 -92 -174 -115
-215 -23 -41 -49 -88 -57 -105 -77 -152 -213 -385 -284 -487 -30 -43 -54 -80
-54 -83 0 -3 10 -5 23 -5 14 0 36 14 54 35 17 19 40 35 50 35 10 0 38 16 63
36 96 77 187 142 225 162 22 12 83 55 135 96 52 42 100 76 105 76 6 0 -17 -26
-51 -58 -148 -139 -273 -253 -319 -289 -97 -77 -99 -97 -4 -58 53 21 177 105
228 153 21 20 165 122 221 157 26 17 83 55 125 85 133 94 122 88 105 66 -8
-11 -53 -51 -100 -90 -47 -39 -119 -102 -160 -141 -41 -38 -93 -85 -115 -102
-38 -31 -39 -32 -15 -33 25 0 65 29 170 126 67 63 168 142 372 292 242 177
288 210 373 268 44 30 114 79 155 109 41 30 118 85 170 121 155 109 295 215
299 226 4 11 -313 10 -479 -2 l-105 -7 -83 -59 c-140 -100 -185 -132 -227
-163 -22 -17 -67 -49 -100 -73 -33 -23 -64 -46 -70 -51 -28 -23 -161 -117
-167 -117 -4 0 -26 -13 -50 -30 -43 -29 -77 -55 -273 -209 -58 -46 -109 -80
-113 -76 -8 7 49 121 149 295 39 69 93 163 119 210 69 125 285 477 374 613 60
89 84 119 105 123 14 3 33 8 41 11 8 2 35 9 60 13 25 5 63 13 85 18 71 17 149
34 195 43 25 4 65 13 90 18 25 6 68 16 95 21 28 5 68 14 90 19 22 5 78 16 125
26 47 9 126 25 175 35 50 10 135 26 190 36 55 9 116 20 135 25 49 12 70 11 70
-3 -1 -13 -106 -90 -533 -387 -58 -41 -105 -76 -103 -78 2 -2 120 -6 263 -9
291 -7 294 -6 373 62 25 22 71 59 102 82 32 23 90 69 130 103 40 33 139 115
220 182 108 89 150 130 154 150 4 16 19 36 33 45 47 30 50 41 18 77 -21 25
-30 27 -117 32 -173 10 -274 7 -355 -10 -148 -31 -299 -48 -415 -48 -86 0
-142 -6 -225 -25 -172 -38 -421 -88 -500 -100 -112 -17 -146 -23 -155 -29 -6
-4 -53 -11 -105 -15 -52 -5 -106 -12 -120 -16 -34 -8 -33 7 8 92 82 168 95
207 78 228 -19 22 -26 20 -55 -15z m-51 -476 c-11 -2 -29 -8 -40 -13 -11 -5
-49 -16 -85 -25 -110 -28 -144 -38 -182 -57 -67 -32 -97 -19 -63 28 11 16 29
23 77 27 35 4 88 12 118 18 116 23 136 26 165 27 18 0 22 -2 10 -5z m-145
-149 c0 -7 -133 -224 -172 -282 -17 -24 -32 -41 -35 -39 -9 9 125 267 160 308
16 17 47 27 47 13z"/>
</g>
</svg>
